<svg width="24" height="24" viewBox="0 0 24 24" fill="none" xmlns="http://www.w3.org/2000/svg">
<rect width="24" height="24" fill="#D7D7D7"/>
<g clip-path="url(#clip0_1_522)">
<rect width="375" height="5908" transform="translate(-21 -3134)" fill="white"/>
<g filter="url(#filter0_dd_1_522)">
<rect x="-20" y="-340" width="370.667" height="404" fill="white" shape-rendering="crispEdges"/>
<rect x="-19.5" y="-339.5" width="369.667" height="403" stroke="#F2F2F2" shape-rendering="crispEdges"/>
<g opacity="0.7">
<path fill-rule="evenodd" clip-rule="evenodd" d="M3.5 10.3178C3.5 5.71789 7.34388 2 11.9934 2C16.6561 2 20.5 5.71789 20.5 10.3178C20.5 12.6357 19.657 14.7876 18.2695 16.6116C16.7388 18.6235 14.8522 20.3765 12.7285 21.7524C12.2425 22.0704 11.8039 22.0944 11.2704 21.7524C9.13474 20.3765 7.24809 18.6235 5.7305 16.6116C4.34198 14.7876 3.5 12.6357 3.5 10.3178ZM9.19423 10.5768C9.19423 12.1177 10.4517 13.3297 11.9934 13.3297C13.5362 13.3297 14.8058 12.1177 14.8058 10.5768C14.8058 9.0478 13.5362 7.77683 11.9934 7.77683C10.4517 7.77683 9.19423 9.0478 9.19423 10.5768Z" fill="#25A59E"/>
</g>
</g>
</g>
<defs>
<filter id="filter0_dd_1_522" x="-173.45" y="-387.591" width="707.607" height="600" filterUnits="userSpaceOnUse" color-interpolation-filters="sRGB">
<feFlood flood-opacity="0" result="BackgroundImageFix"/>
<feColorMatrix in="SourceAlpha" type="matrix" values="0 0 0 0 0 0 0 0 0 0 0 0 0 0 0 0 0 0 127 0" result="hardAlpha"/>
<feOffset dx="-55.45" dy="50.4088"/>
<feGaussianBlur stdDeviation="49"/>
<feComposite in2="hardAlpha" operator="out"/>
<feColorMatrix type="matrix" values="0 0 0 0 0.215686 0 0 0 0 0.211765 0 0 0 0 0.392157 0 0 0 0.04 0"/>
<feBlend mode="normal" in2="BackgroundImageFix" result="effect1_dropShadow_1_522"/>
<feColorMatrix in="SourceAlpha" type="matrix" values="0 0 0 0 0 0 0 0 0 0 0 0 0 0 0 0 0 0 127 0" result="hardAlpha"/>
<feOffset dx="105.45" dy="50.41"/>
<feGaussianBlur stdDeviation="39.02"/>
<feComposite in2="hardAlpha" operator="out"/>
<feColorMatrix type="matrix" values="0 0 0 0 0.216756 0 0 0 0 0.212153 0 0 0 0 0.391667 0 0 0 0.05 0"/>
<feBlend mode="normal" in2="effect1_dropShadow_1_522" result="effect2_dropShadow_1_522"/>
<feBlend mode="normal" in="SourceGraphic" in2="effect2_dropShadow_1_522" result="shape"/>
</filter>
<clipPath id="clip0_1_522">
<rect width="375" height="5908" fill="white" transform="translate(-21 -3134)"/>
</clipPath>
</defs>
</svg>
